<svg width="155" height="155" viewBox="0 0 155 155" fill="none" xmlns="http://www.w3.org/2000/svg">
<g filter="url(#filter0_d_22_56)">
<path d="M101.021 36.6987L53.5807 36.6987C46.4659 36.6987 40.6982 42.4664 40.6982 49.5812V97.0214C40.6982 104.136 46.4659 109.904 53.5807 109.904L101.021 109.904C108.136 109.904 113.903 104.136 113.903 97.0214V49.5812C113.903 42.4664 108.136 36.6987 101.021 36.6987Z" stroke="#D9D9D9"/>
<path fill-rule="evenodd" clip-rule="evenodd" d="M62.2987 52.8578C59.37 52.8579 57.2029 55.4213 57.2999 58.2011C57.393 60.8718 57.2721 64.3306 56.4015 67.1513C55.5276 69.98 54.0507 71.7725 51.638 72.0025L51.638 74.6001C54.0506 74.8308 55.5275 76.6223 56.4014 79.4513C57.2721 82.2721 57.3931 85.731 57.2999 88.4017C57.2029 91.1811 59.3699 93.7448 62.299 93.7448L92.3074 93.7448C95.2362 93.7449 97.4027 91.1813 97.3057 88.4016C97.2126 85.731 97.3335 82.2719 98.2042 79.4514C99.0783 76.6222 100.551 74.8301 102.964 74.6001L102.964 72.0025C100.551 71.7721 99.0782 69.9804 98.2042 67.1514C97.3333 64.3311 97.2127 60.8716 97.3057 58.201C97.4029 55.4215 95.2361 52.8579 92.3074 52.8579L62.2983 52.8579L62.2987 52.8578ZM86.4355 78.0264C86.4354 81.8542 83.5804 84.1756 78.842 84.1757L70.7766 84.1755C70.5458 84.1756 70.3247 84.0839 70.1615 83.9207C69.9984 83.7575 69.9066 83.5364 69.9066 83.3057L69.9065 63.2972C69.9064 63.0665 69.9982 62.8452 70.1614 62.682C70.3246 62.5189 70.546 62.4271 70.7765 62.4272L78.7964 62.4271C82.7471 62.4272 85.3399 64.5673 85.3399 67.853C85.3401 70.159 83.5958 72.2236 81.3735 72.5853L81.3736 72.7056C84.3986 73.0375 86.4355 75.1326 86.4355 78.0264ZM77.9627 65.1849L73.3637 65.185L73.3636 71.6809L77.2373 71.6808C80.2317 71.6808 81.8826 70.4751 81.8826 68.3199C81.8824 66.3001 80.4628 65.185 77.9627 65.1849ZM73.3637 74.2584L73.3638 81.417L78.1319 81.417C81.2496 81.417 82.9008 80.1661 82.9011 77.815C82.901 75.464 81.2034 74.2578 77.9314 74.2579L73.3639 74.2578L73.3637 74.2584Z" fill="#7952B3"/>
</g>
<defs>
<filter id="filter0_d_22_56" x="0.198242" y="0.19873" width="154.205" height="154.205" filterUnits="userSpaceOnUse" color-interpolation-filters="sRGB">
<feFlood flood-opacity="0" result="BackgroundImageFix"/>
<feColorMatrix in="SourceAlpha" type="matrix" values="0 0 0 0 0 0 0 0 0 0 0 0 0 0 0 0 0 0 127 0" result="hardAlpha"/>
<feOffset dy="4"/>
<feGaussianBlur stdDeviation="20"/>
<feComposite in2="hardAlpha" operator="out"/>
<feColorMatrix type="matrix" values="0 0 0 0 0.0367917 0 0 0 0 0.0348958 0 0 0 0 0.0484375 0 0 0 0.1 0"/>
<feBlend mode="normal" in2="BackgroundImageFix" result="effect1_dropShadow_22_56"/>
<feBlend mode="normal" in="SourceGraphic" in2="effect1_dropShadow_22_56" result="shape"/>
</filter>
</defs>
</svg>
