<svg width="155" height="155" viewBox="0 0 155 155" fill="none" xmlns="http://www.w3.org/2000/svg">
<g filter="url(#filter0_d_22_67)">
<path d="M101.022 36.6987H53.5817C46.4669 36.6987 40.6992 42.4664 40.6992 49.5812V97.0214C40.6992 104.136 46.4669 109.904 53.5817 109.904H101.022C108.137 109.904 113.904 104.136 113.904 97.0214V49.5812C113.904 42.4664 108.137 36.6987 101.022 36.6987Z" stroke="#D9D9D9"/>
<path d="M70.4821 93.7495C74.2448 93.7494 77.2982 90.6959 77.2983 86.9335L77.2981 80.1174L70.4823 80.1174C66.7196 80.1175 63.6662 83.171 63.6662 86.9333C63.6663 90.696 66.7198 93.7494 70.4821 93.7495Z" fill="#0ACF83"/>
<path d="M63.6673 73.3015C63.6672 69.5388 66.7209 66.4851 70.4833 66.4852L77.2996 66.4854L77.2997 80.1173L70.4836 80.1174C66.7209 80.1176 63.6672 77.0638 63.6673 73.3015Z" fill="#A259FF"/>
<path d="M63.6652 59.669C63.6653 55.9065 66.719 52.8529 70.4814 52.853L77.2975 52.8529L77.2975 66.4854L70.4812 66.4852C66.7188 66.4851 63.6653 63.4317 63.6652 59.669Z" fill="#F24E1E"/>
<path d="M77.2995 52.8529L84.1157 52.8527C87.878 52.8528 90.9317 55.9065 90.9318 59.6692C90.9317 63.4316 87.878 66.4853 84.1156 66.4852L77.2995 66.4853L77.2995 52.8529Z" fill="#FF7262"/>
<path d="M90.9321 73.3012C90.932 77.0636 87.8786 80.1171 84.1159 80.1172C80.3535 80.1171 77.3001 77.0637 77.2999 73.301C77.3 69.5387 80.3534 66.4852 84.1161 66.4851C87.8785 66.4851 90.9321 69.5389 90.9321 73.3012Z" fill="#1ABCFE"/>
</g>
<defs>
<filter id="filter0_d_22_67" x="0.199219" y="0.19873" width="154.205" height="154.205" filterUnits="userSpaceOnUse" color-interpolation-filters="sRGB">
<feFlood flood-opacity="0" result="BackgroundImageFix"/>
<feColorMatrix in="SourceAlpha" type="matrix" values="0 0 0 0 0 0 0 0 0 0 0 0 0 0 0 0 0 0 127 0" result="hardAlpha"/>
<feOffset dy="4"/>
<feGaussianBlur stdDeviation="20"/>
<feComposite in2="hardAlpha" operator="out"/>
<feColorMatrix type="matrix" values="0 0 0 0 0.0367917 0 0 0 0 0.0348958 0 0 0 0 0.0484375 0 0 0 0.1 0"/>
<feBlend mode="normal" in2="BackgroundImageFix" result="effect1_dropShadow_22_67"/>
<feBlend mode="normal" in="SourceGraphic" in2="effect1_dropShadow_22_67" result="shape"/>
</filter>
</defs>
</svg>
