<svg width="137" height="137" viewBox="0 0 137 137" fill="none" xmlns="http://www.w3.org/2000/svg">
<path d="M92.0209 31.6987H44.5807C37.4659 31.6987 31.6982 37.4664 31.6982 44.5812V92.0214C31.6982 99.1361 37.4659 104.904 44.5807 104.904H92.0209C99.1357 104.904 104.903 99.1361 104.903 92.0214V44.5812C104.903 37.4664 99.1357 31.6987 92.0209 31.6987Z" stroke="#D9D9D9"/>
<path d="M56.5114 47.8531L58.3488 47.853L58.3487 49.6743L60.0421 49.6743L60.0422 47.853L61.8793 47.8531L61.8794 53.3645L60.042 53.3646L60.042 51.5276L58.3646 51.5275L58.3646 53.3645L56.5116 53.3647L56.5114 47.8531ZM64.3075 49.6902L62.686 49.6904L62.6859 47.8531L67.7742 47.853L67.7741 49.6901L66.1445 49.6902L66.1447 53.3646L64.3076 53.3646L64.3075 49.6902ZM68.5807 47.853L70.506 47.8531L71.688 49.7939L72.87 47.853L74.7953 47.853L74.7951 53.3646L72.9581 53.3646L72.9581 50.6327L71.6722 52.6138L70.386 50.633L70.3861 53.3643L68.5808 53.3644L68.5807 47.853ZM75.7058 47.853L77.5428 47.853L77.5431 51.5433L80.1469 51.5431L80.1469 53.3646L75.7059 53.3644" fill="black"/>
<path d="M56.4477 85.4749L53.8118 55.8888L82.7908 55.8885L80.1549 85.4587L68.2772 88.75" fill="#E44D26"/>
<path d="M68.3011 86.2338L68.3013 58.3172L80.1467 58.3171L77.8862 83.5578" fill="#F16529"/>
<path d="M59.1955 61.9351L68.3013 61.9353L68.3014 65.5615L63.1735 65.5616L63.5088 69.2758L68.3014 69.2756L68.3015 72.8943L60.1861 72.8942L59.1955 61.9351ZM60.3456 74.7156L63.9883 74.7154L64.2437 77.6148L68.3014 78.7014L68.3012 82.4874L60.8569 80.4107" fill="#EBEBEB"/>
<path d="M77.375 61.9352L68.2852 61.9348L68.2852 65.5615L77.0395 65.5616L77.375 61.9352ZM76.7122 69.2758L68.2852 69.2757L68.285 72.9021L72.7581 72.9022L72.3348 77.6149L68.285 78.7012L68.2852 82.4714L75.7136 80.4105" fill="white"/>
</svg>
