<svg width="137" height="137" viewBox="0 0 137 137" fill="none" xmlns="http://www.w3.org/2000/svg">
<mask id="mask0_22_81" style="mask-type:luminance" maskUnits="userSpaceOnUse" x="31" y="31" width="74" height="74">
<path d="M91.8891 31.6987H44.7125C37.5249 31.6987 31.6982 37.5254 31.6982 44.713V91.8896C31.6982 99.0771 37.5249 104.904 44.7125 104.904H91.8891C99.0767 104.904 104.903 99.0771 104.903 91.8896V44.713C104.903 37.5254 99.0767 31.6987 91.8891 31.6987Z" fill="white"/>
</mask>
<g mask="url(#mask0_22_81)">
<path d="M88.6362 47.9663L47.9669 47.9663L47.9669 88.6359L88.6363 88.636L88.6362 47.9663Z" fill="#F7DF1E"/>
<path d="M75.2863 79.7395C76.1054 81.0769 77.1713 82.0601 79.0564 82.0603C80.64 82.0603 81.6515 81.2688 81.6512 80.1752C81.6513 78.8649 80.6122 78.4007 78.8692 77.6381L77.9137 77.2284C75.1558 76.0533 73.3237 74.5817 73.3239 71.4699C73.324 68.6038 75.5078 66.4216 78.9206 66.4218C81.3508 66.4219 83.0976 67.2674 84.3563 69.4818L81.3804 71.3925C80.725 70.2174 80.0184 69.7548 78.9209 69.7549C77.8013 69.7547 77.0917 70.4648 77.092 71.3926C77.0918 72.5391 77.802 73.003 79.4415 73.7132L80.3971 74.1223C83.6442 75.5152 85.4775 76.9344 85.4776 80.1263C85.4776 83.5671 82.7748 85.4521 79.1447 85.452C75.5956 85.4517 73.3026 83.7607 72.1805 81.5439L75.2863 79.7395ZM61.7861 80.0708C62.3864 81.1358 62.9326 82.0363 64.2456 82.0362C65.501 82.0365 66.2931 81.5449 66.2934 79.6348L66.2932 66.6398L70.115 66.64L70.1148 79.6864C70.1149 83.6437 67.7948 85.4449 64.4083 85.4447C61.3483 85.4447 59.5762 83.8614 58.6749 81.9539L61.7861 80.0708Z" fill="black"/>
</g>
<path d="M91.8898 31.9022H44.7132C37.638 31.9022 31.9023 37.6379 31.9023 44.7131V91.8897C31.9023 98.965 37.638 104.701 44.7132 104.701H91.8898C98.9651 104.701 104.701 98.965 104.701 91.8897V44.7131C104.701 37.6379 98.9651 31.9022 91.8898 31.9022Z" stroke="#D9D9D9"/>
</svg>
