<svg width="127" height="37" viewBox="0 0 127 37" fill="none" xmlns="http://www.w3.org/2000/svg">
<path d="M8.076 5.508V30.28H19.956L19.208 36H0.86V5.508H8.076ZM42.3541 36H36.3261L36.0181 33.052C34.3167 35.516 31.9554 36.748 28.9341 36.748C26.7927 36.748 25.1647 36.1027 24.0501 34.812C22.9647 33.5213 22.4221 31.7173 22.4221 29.4V12.636H29.3741V28.52C29.3741 29.664 29.5501 30.4707 29.9021 30.94C30.2834 31.38 30.8554 31.6 31.6181 31.6C33.0847 31.6 34.3461 30.6907 35.4021 28.872V12.636H42.3541V36ZM54.7738 12.636V36H47.8218V12.636H54.7738ZM51.2538 0.315998C52.4564 0.315998 53.4391 0.697332 54.2018 1.46C54.9938 2.19333 55.3898 3.132 55.3898 4.276C55.3898 5.42 54.9938 6.37333 54.2018 7.136C53.4391 7.86933 52.4564 8.236 51.2538 8.236C50.0511 8.236 49.0684 7.86933 48.3058 7.136C47.5431 6.37333 47.1618 5.42 47.1618 4.276C47.1618 3.132 47.5431 2.19333 48.3058 1.46C49.0684 0.697332 50.0511 0.315998 51.2538 0.315998ZM68.4677 11.888C70.1397 11.888 71.7091 12.1373 73.1757 12.636C74.6424 13.1347 75.9331 13.8387 77.0477 14.748L74.4957 18.664C72.5891 17.4613 70.6677 16.86 68.7317 16.86C67.8224 16.86 67.1184 17.0213 66.6197 17.344C66.1504 17.6373 65.9157 18.0627 65.9157 18.62C65.9157 19.06 66.0184 19.4267 66.2237 19.72C66.4584 19.984 66.9131 20.2627 67.5877 20.556C68.2624 20.8493 69.3037 21.2013 70.7117 21.612C73.1464 22.316 74.9504 23.24 76.1237 24.384C77.3264 25.4987 77.9277 27.0533 77.9277 29.048C77.9277 30.632 77.4731 32.0107 76.5637 33.184C75.6544 34.328 74.4077 35.208 72.8237 35.824C71.2397 36.44 69.4797 36.748 67.5437 36.748C65.5784 36.748 63.7451 36.44 62.0437 35.824C60.3717 35.208 58.9491 34.3573 57.7757 33.272L61.1637 29.488C63.1291 31.0133 65.1971 31.776 67.3677 31.776C68.4237 31.776 69.2451 31.5853 69.8317 31.204C70.4477 30.8227 70.7557 30.28 70.7557 29.576C70.7557 29.0187 70.6384 28.5787 70.4037 28.256C70.1691 27.9333 69.7144 27.64 69.0397 27.376C68.3651 27.0827 67.2944 26.7307 65.8277 26.32C63.5104 25.6453 61.7797 24.7067 60.6357 23.504C59.4917 22.3013 58.9197 20.8053 58.9197 19.016C58.9197 17.6667 59.3011 16.464 60.0637 15.408C60.8557 14.3227 61.9704 13.472 63.4077 12.856C64.8744 12.2107 66.5611 11.888 68.4677 11.888ZM105.283 4.76C109.213 4.76 112.601 6.00667 115.447 8.5L111.795 12.328C110.709 11.5067 109.697 10.92 108.759 10.568C107.849 10.1867 106.793 9.996 105.591 9.996C103.332 9.996 101.528 10.8907 100.179 12.68C98.8293 14.44 98.1547 17.124 98.1547 20.732C98.1547 24.6333 98.668 27.4053 99.6947 29.048C100.721 30.6613 102.32 31.468 104.491 31.468C106.016 31.468 107.395 31.1307 108.627 30.456V23.548H104.667L103.963 18.444H115.623V33.536C114.039 34.5627 112.293 35.3547 110.387 35.912C108.48 36.4693 106.573 36.748 104.667 36.748C100.032 36.748 96.5413 35.3987 94.1947 32.7C91.848 29.972 90.6747 25.9827 90.6747 20.732C90.6747 17.388 91.3053 14.5133 92.5667 12.108C93.8573 9.70267 95.6027 7.884 97.8027 6.652C100.032 5.39066 102.525 4.76 105.283 4.76ZM122.862 28.784C123.947 28.784 124.871 29.18 125.634 29.972C126.426 30.7347 126.822 31.6587 126.822 32.744C126.822 33.8587 126.426 34.812 125.634 35.604C124.871 36.3667 123.947 36.748 122.862 36.748C121.747 36.748 120.794 36.3667 120.002 35.604C119.239 34.812 118.858 33.8587 118.858 32.744C118.858 31.6587 119.239 30.7347 120.002 29.972C120.794 29.18 121.747 28.784 122.862 28.784Z" fill="#141414"/>
</svg>
