<svg width="155" height="155" viewBox="0 0 155 155" fill="none" xmlns="http://www.w3.org/2000/svg">
<g filter="url(#filter0_d_22_42)">
<path d="M101.021 36.6987L53.5807 36.6987C46.4659 36.6987 40.6982 42.4664 40.6982 49.5812V97.0214C40.6982 104.136 46.4659 109.904 53.5807 109.904L101.021 109.904C108.136 109.904 113.903 104.136 113.903 97.0214V49.5812C113.903 42.4664 108.136 36.6987 101.021 36.6987Z" stroke="#D9D9D9"/>
<path d="M66.5022 67.4283L74.2158 67.4285L74.2158 68.0386L67.2096 68.0385L67.2093 72.6306L73.7979 72.6306L73.7982 73.2405L67.2097 73.2406L67.2096 78.2822L74.2963 78.2821L74.2963 78.8922L66.5021 78.8923L66.5022 67.4283ZM74.9069 67.428L75.7263 67.4281L79.3583 72.47L83.0701 67.4284L88.1195 61.0243L79.8241 72.9996L84.0987 78.8926L83.247 78.8922L79.3581 73.5297L75.4534 78.8924L74.6175 78.8924L78.9242 72.9997L74.9069 67.428ZM84.4042 68.0385L84.4042 67.4283L93.1942 67.4281L93.1942 68.0382L89.1447 68.0381L89.1449 78.8924L88.4374 78.8923L88.4375 68.0384L84.4042 68.0385Z" fill="#D9D9D9"/>
<path d="M56.8528 67.4284L57.7365 67.4287L69.9244 85.5786L64.8879 78.8925L57.5919 68.2956L57.5598 78.8927L56.8529 78.8928L56.8528 67.4284Z" fill="#D9D9D9"/>
<path d="M93.1241 78.0981C93.2703 78.0978 93.377 77.9866 93.377 77.8426C93.3769 77.6986 93.2702 77.5873 93.1242 77.5871C92.9798 77.5873 92.8713 77.6987 92.8713 77.8427C92.8713 77.9867 92.9795 78.098 93.1241 78.0981ZM93.819 77.4263C93.8189 77.8514 94.1269 78.1288 94.5756 78.129C95.0538 78.1287 95.3424 77.8426 95.3427 77.3457L95.3426 75.5961L94.9573 75.5961L94.9572 77.3439C94.9575 77.62 94.8181 77.7671 94.5722 77.7673C94.3522 77.7674 94.2025 77.6299 94.1972 77.4261L93.819 77.4263ZM95.8465 77.4037C95.8738 77.8461 96.2438 78.1287 96.7941 78.1289C97.3821 78.1289 97.7501 77.8324 97.7505 77.3594C97.7502 76.9875 97.5403 76.7819 97.0314 76.6635L96.758 76.5965C96.4347 76.5216 96.304 76.4204 96.304 76.2438C96.3039 76.021 96.5069 75.8754 96.8114 75.8753C97.1 75.8753 97.2997 76.0175 97.3359 76.2454L97.7107 76.2453C97.6881 75.829 97.3202 75.5362 96.8164 75.5362C96.2746 75.5359 95.9134 75.8289 95.9137 76.2694C95.9133 76.6328 96.1183 76.8487 96.5672 76.9532L96.887 77.0302C97.2154 77.1074 97.36 77.2204 97.3597 77.4089C97.3599 77.6284 97.1327 77.7879 96.8235 77.788C96.4915 77.7879 96.2608 77.6387 96.2282 77.4039L95.8465 77.4037Z" fill="#D9D9D9"/>
</g>
<defs>
<filter id="filter0_d_22_42" x="0.198242" y="0.19873" width="154.205" height="154.205" filterUnits="userSpaceOnUse" color-interpolation-filters="sRGB">
<feFlood flood-opacity="0" result="BackgroundImageFix"/>
<feColorMatrix in="SourceAlpha" type="matrix" values="0 0 0 0 0 0 0 0 0 0 0 0 0 0 0 0 0 0 127 0" result="hardAlpha"/>
<feOffset dy="4"/>
<feGaussianBlur stdDeviation="20"/>
<feComposite in2="hardAlpha" operator="out"/>
<feColorMatrix type="matrix" values="0 0 0 0 0.0367917 0 0 0 0 0.0348958 0 0 0 0 0.0484375 0 0 0 0.1 0"/>
<feBlend mode="normal" in2="BackgroundImageFix" result="effect1_dropShadow_22_42"/>
<feBlend mode="normal" in="SourceGraphic" in2="effect1_dropShadow_22_42" result="shape"/>
</filter>
</defs>
</svg>
