<svg width="155" height="155" viewBox="0 0 155 155" fill="none" xmlns="http://www.w3.org/2000/svg">
<g filter="url(#filter0_d_22_60)">
<path d="M101.021 36.6987H53.5807C46.4659 36.6987 40.6982 42.4664 40.6982 49.5812V97.0214C40.6982 104.136 46.4659 109.904 53.5807 109.904H101.021C108.136 109.904 113.903 104.136 113.903 97.0214V49.5812C113.903 42.4664 108.136 36.6987 101.021 36.6987Z" stroke="#D9D9D9"/>
<path d="M77.2249 77.1829C79.2164 77.183 80.8306 75.5686 80.8304 73.5774C80.8305 71.5859 79.2161 69.9716 77.2248 69.9719C75.2337 69.9716 73.6195 71.5859 73.6194 73.5774C73.6196 75.5687 75.2334 77.1828 77.2249 77.1829Z" fill="#61DAFB"/>
<path d="M77.2247 80.9643C87.9095 80.9643 96.5713 77.6568 96.5714 73.5771C96.5715 69.4974 87.9097 66.1903 77.2244 66.1902C66.5396 66.1902 57.8776 69.4974 57.8777 73.5774C57.8779 77.6569 66.5394 80.9642 77.2247 80.9643Z" stroke="#61DAFB" stroke-width="5"/>
<path d="M70.8278 77.2705C76.1703 86.524 83.365 92.3717 86.8982 90.3318C90.4315 88.2918 88.9649 79.1371 83.6224 69.8835C78.2799 60.63 71.0847 54.7822 67.5514 56.8221C64.0182 58.8621 65.4853 68.0169 70.8278 77.2705Z" stroke="#61DAFB" stroke-width="5"/>
<path d="M70.8272 69.8836C65.4847 79.1374 64.0182 88.2921 67.551 90.332C71.0841 92.3718 78.2794 86.5242 83.6216 77.2706C88.9644 68.0171 90.4313 58.8622 86.8981 56.8224C83.3648 54.7823 76.1697 60.6303 70.8272 69.8836Z" stroke="#61DAFB" stroke-width="5"/>
</g>
<defs>
<filter id="filter0_d_22_60" x="0.198242" y="0.19873" width="154.205" height="154.205" filterUnits="userSpaceOnUse" color-interpolation-filters="sRGB">
<feFlood flood-opacity="0" result="BackgroundImageFix"/>
<feColorMatrix in="SourceAlpha" type="matrix" values="0 0 0 0 0 0 0 0 0 0 0 0 0 0 0 0 0 0 127 0" result="hardAlpha"/>
<feOffset dy="4"/>
<feGaussianBlur stdDeviation="20"/>
<feComposite in2="hardAlpha" operator="out"/>
<feColorMatrix type="matrix" values="0 0 0 0 0.0367917 0 0 0 0 0.0348958 0 0 0 0 0.0484375 0 0 0 0.1 0"/>
<feBlend mode="normal" in2="BackgroundImageFix" result="effect1_dropShadow_22_60"/>
<feBlend mode="normal" in="SourceGraphic" in2="effect1_dropShadow_22_60" result="shape"/>
</filter>
</defs>
</svg>
