<svg width="24" height="24" viewBox="0 0 24 24" fill="none" xmlns="http://www.w3.org/2000/svg">
<g clip-path="url(#clip0_26_85)">
<path d="M3.68436 0.234389C3.23905 -0.112486 2.60624 -0.0702983 2.20311 0.328139L0.328111 2.20314C-0.0703269 2.60158 -0.112514 3.23439 0.229673 3.68439L3.97967 8.55939C4.19061 8.83595 4.52342 9.00001 4.8703 9.00001H7.40624L12.5156 14.1094C11.8265 15.4688 12.0469 17.175 13.1859 18.3094L18.4359 23.5594C19.0219 24.1453 19.9734 24.1453 20.5594 23.5594L23.5594 20.5594C24.1453 19.9735 24.1453 19.0219 23.5594 18.436L18.3094 13.186C17.175 12.0516 15.4687 11.8266 14.1094 12.5156L8.99999 7.40626V4.87033C8.99999 4.51876 8.83592 4.19064 8.55936 3.9797L3.68436 0.234389ZM0.932798 18.5672C0.337486 19.1625 -1.44334e-05 19.9735 -1.44334e-05 20.8172C-1.44334e-05 22.575 1.42499 24 3.1828 24C4.02655 24 4.83749 23.6625 5.4328 23.0672L10.9547 17.5453C10.589 16.5656 10.5328 15.5016 10.7859 14.4938L7.89374 11.6016L0.932798 18.5672ZM24 6.75001C24 6.25783 23.9484 5.7797 23.85 5.32033C23.7375 4.79533 23.0953 4.65939 22.7156 5.03908L19.7203 8.03439C19.5797 8.17501 19.3875 8.2547 19.1906 8.2547L16.5 8.25001C16.0875 8.25001 15.75 7.91251 15.75 7.50001V4.80939C15.75 4.61251 15.8297 4.42033 15.9703 4.2797L18.9656 1.28439C19.3453 0.904702 19.2094 0.262514 18.6844 0.150014C18.2203 0.0515767 17.7422 1.41745e-05 17.25 1.41745e-05C13.5234 1.41745e-05 10.5 3.02345 10.5 6.75001V6.78751L14.4984 10.786C16.1859 10.3594 18.0515 10.8094 19.3734 12.1313L20.1094 12.8672C22.4062 11.7891 24 9.4547 24 6.75001ZM2.62499 20.25C2.62499 19.9516 2.74351 19.6655 2.95449 19.4545C3.16547 19.2435 3.45162 19.125 3.74999 19.125C4.04835 19.125 4.3345 19.2435 4.54548 19.4545C4.75646 19.6655 4.87499 19.9516 4.87499 20.25C4.87499 20.5484 4.75646 20.8345 4.54548 21.0455C4.3345 21.2565 4.04835 21.375 3.74999 21.375C3.45162 21.375 3.16547 21.2565 2.95449 21.0455C2.74351 20.8345 2.62499 20.5484 2.62499 20.25Z" fill="url(#paint0_linear_26_85)"/>
</g>
<defs>
<linearGradient id="paint0_linear_26_85" x1="11.9993" y1="-0.000549316" x2="11.9993" y2="24" gradientUnits="userSpaceOnUse">
<stop stop-color="#35D2DD"/>
<stop offset="1" stop-color="#16A3AD"/>
</linearGradient>
<clipPath id="clip0_26_85">
<rect width="24" height="24" fill="white"/>
</clipPath>
</defs>
</svg>
